<?xml version="1.0" encoding="utf-8"?>
<!-- Generator: Adobe Illustrator 24.1.2, SVG Export Plug-In . SVG Version: 6.00 Build 0)  -->
<svg version="1.1" id="Calque_1" xmlns="http://www.w3.org/2000/svg" xmlns:xlink="http://www.w3.org/1999/xlink" x="0px" y="0px"
	 viewBox="0 0 1024 768" style="enable-background:new 0 0 1024 768;" xml:space="preserve">
<style type="text/css">
	.st0{fill:#FFFFFF;}
	.st1{fill:#6D6D6C;}
	.st2{fill:none;stroke:#5EB0B5;stroke-width:3;stroke-miterlimit:10;}
	.st3{fill:#5EB0B5;}
	.st4{fill:none;stroke:#5EB0B5;stroke-width:2.3645;stroke-miterlimit:10;}
	.st5{font-family:'PoiretOne-Regular';}
	.st6{font-size:28px;}
</style>
<rect x="590.09" y="562.99" transform="matrix(0.7045 -0.7097 0.7097 0.7045 -226.2012 587.6711)" class="st0" width="4.91" height="4.91"/>
<path class="st1" d="M508.78,576.41c-1.28-1.32-1.92-2.87-1.92-4.63c0-1.76,0.65-3.29,1.95-4.57c1.3-1.29,2.86-1.93,4.69-1.93
	c1.83,0,3.38,0.64,4.67,1.93c1.29,1.29,1.93,2.82,1.93,4.59c0,1.77-0.63,3.31-1.89,4.63s-2.79,1.97-4.59,1.97h-0.25
	C511.59,578.4,510.06,577.74,508.78,576.41z M519.21,571.85c0-1.57-0.56-2.92-1.68-4.07c-1.12-1.15-2.46-1.72-4.02-1.72
	c-1.56,0-2.91,0.58-4.05,1.74c-1.14,1.16-1.71,2.52-1.71,4.07c0,1.56,0.57,2.91,1.71,4.05s2.49,1.71,4.06,1.71
	c1.57,0,2.91-0.57,4.02-1.71C518.65,574.77,519.21,573.42,519.21,571.85z"/>
<path class="st1" d="M541.78,565.58v12.51h-0.89v-3.11c-0.52,1.06-1.3,1.89-2.34,2.5c-1.04,0.61-2.15,0.92-3.34,0.92
	c-1.82,0-3.37-0.64-4.67-1.93c-1.3-1.29-1.95-2.83-1.95-4.63s0.65-3.34,1.95-4.63c1.3-1.29,2.85-1.93,4.67-1.93
	c1.19,0,2.32,0.32,3.41,0.95c1.08,0.63,1.84,1.46,2.27,2.5v-3.14H541.78z M529.49,571.87c0,1.56,0.57,2.91,1.71,4.05
	s2.49,1.71,4.06,1.71c1.57,0,2.91-0.57,4.02-1.71c1.11-1.14,1.67-2.49,1.67-4.06c0-1.57-0.56-2.92-1.68-4.07
	c-1.12-1.15-2.46-1.72-4.02-1.72s-2.91,0.58-4.05,1.74C530.06,568.95,529.49,570.31,529.49,571.87z"/>
<path class="st1" d="M557.04,578.46h-0.25c-1.78,0-3.31-0.66-4.59-1.97s-1.92-2.86-1.92-4.63c0-1.77,0.65-3.3,1.95-4.59
	c1.3-1.29,2.89-1.93,4.78-1.93s3.5,0.71,4.84,2.14v1.42c-0.57-0.85-1.3-1.53-2.18-2.03c-0.88-0.5-1.8-0.75-2.77-0.75
	c-1.54,0-2.88,0.57-4.02,1.71s-1.71,2.5-1.71,4.07s0.57,2.93,1.71,4.07s2.48,1.71,4.02,1.71c0.96,0,1.89-0.25,2.77-0.75
	c0.88-0.5,1.61-1.19,2.18-2.06v1.45C560.55,577.74,558.95,578.46,557.04,578.46z"/>
<path class="st1" d="M571.24,578.1h-0.89v-20.83h0.89V568c0.93-1.82,2.53-2.72,4.81-2.72c1.56,0,2.87,0.54,3.93,1.61
	c1.07,1.08,1.6,2.38,1.6,3.92v7.28h-0.89v-7.28c0-1.3-0.45-2.42-1.36-3.35c-0.91-0.94-2-1.4-3.28-1.4c-1.28,0-2.4,0.47-3.36,1.42
	c-0.96,0.95-1.45,2.06-1.45,3.34V578.1z"/>
<path class="st1" d="M484.03,580.35h1.12c3.92,0,7.08,1.09,9.48,3.28c2.4,2.18,3.6,4.8,3.6,7.86c0,3.05-1.2,5.67-3.58,7.84
	c-2.39,2.17-5.56,3.26-9.5,3.26h-1.12V580.35z M485.43,581.24h-0.28v20.42h0.28c3.4,0,6.2-1,8.38-2.99c2.18-2,3.27-4.39,3.27-7.19
	c0-2.8-1.09-5.2-3.27-7.22C491.63,582.25,488.84,581.24,485.43,581.24z"/>
<path class="st1" d="M506.75,586.01c-0.57,0-0.86-0.27-0.86-0.8c0-0.53,0.29-0.8,0.86-0.8c0.57,0,0.86,0.27,0.86,0.8
	C507.61,585.74,507.32,586.01,506.75,586.01z M507.22,589.27v13.31h-0.95v-13.31H507.22z"/>
<path class="st1" d="M528.39,589.24h0.95v12.09c0,2.29-0.63,4.1-1.9,5.42c-1.27,1.32-2.92,1.99-4.98,1.99
	c-1.13,0-2.22-0.26-3.29-0.77c-1.07-0.51-1.9-1.19-2.49-2.02v-1.36c0.51,0.95,1.32,1.74,2.42,2.37c1.1,0.63,2.22,0.95,3.36,0.95
	c1.74,0,3.16-0.59,4.27-1.76c1.11-1.18,1.66-2.78,1.66-4.82v-1.99c-0.53,1.09-1.37,1.96-2.52,2.61c-1.15,0.65-2.33,0.98-3.56,0.98
	c-1.94,0-3.6-0.69-4.98-2.06c-1.38-1.37-2.08-3.02-2.08-4.94c0-1.92,0.69-3.56,2.08-4.94c1.38-1.37,3.04-2.06,4.98-2.06
	c1.28,0,2.49,0.32,3.6,0.96c1.12,0.64,1.94,1.53,2.47,2.65V589.24z M516.21,595.94c0,1.68,0.61,3.13,1.82,4.34
	c1.22,1.22,2.66,1.82,4.33,1.82c1.67,0,3.1-0.61,4.28-1.82c1.19-1.22,1.78-2.66,1.78-4.34c0-1.68-0.59-3.13-1.78-4.34
	c-1.19-1.22-2.61-1.82-4.28-1.82c-1.67,0-3.11,0.61-4.33,1.82C516.82,592.82,516.21,594.26,516.21,595.94z"/>
<path class="st1" d="M537.85,586.01c-0.57,0-0.86-0.27-0.86-0.8c0-0.53,0.29-0.8,0.86-0.8c0.57,0,0.86,0.27,0.86,0.8
	C538.71,585.74,538.43,586.01,537.85,586.01z M538.33,589.27v13.31h-0.95v-13.31H538.33z"/>
<path class="st1" d="M551.44,601.93v0.83c-1.4,0-2.6-0.47-3.59-1.41c-0.99-0.94-1.48-2.14-1.48-3.6v-13.87h0.95v5.39h4.09v0.83
	h-4.09v7.65c0,1.21,0.4,2.2,1.2,2.99C549.32,601.54,550.29,601.93,551.44,601.93z"/>
<path class="st1" d="M573.14,589.24v13.34h-0.95v-3.32c-0.55,1.13-1.38,2.02-2.49,2.67c-1.11,0.65-2.29,0.98-3.56,0.98
	c-1.94,0-3.6-0.69-4.98-2.06c-1.38-1.37-2.08-3.02-2.08-4.94c0-1.92,0.69-3.56,2.08-4.94c1.38-1.37,3.04-2.06,4.98-2.06
	c1.26,0,2.48,0.34,3.63,1.01c1.16,0.67,1.96,1.56,2.42,2.67v-3.35H573.14z M560.04,595.94c0,1.66,0.61,3.1,1.82,4.31
	c1.22,1.22,2.66,1.82,4.33,1.82c1.67,0,3.1-0.61,4.28-1.82c1.19-1.22,1.78-2.66,1.78-4.33c0-1.67-0.6-3.12-1.79-4.34
	c-1.2-1.22-2.62-1.84-4.28-1.84s-3.1,0.62-4.31,1.85C560.65,592.84,560.04,594.28,560.04,595.94z"/>
<path class="st1" d="M585.86,602.02v0.83c-1.4,0-2.6-0.47-3.59-1.41c-0.99-0.94-1.48-2.14-1.48-3.6v-17.49h0.95v17.49
	c0,1.21,0.4,2.2,1.2,2.99C583.74,601.62,584.72,602.02,585.86,602.02z"/>
<path class="st0" d="M590.24,550.3h-13.1c-0.03,0-0.05-0.02-0.05-0.05v-4.44c0-0.03,0.02-0.05,0.05-0.05h13.1
	c0.03,0,0.05,0.02,0.05,0.05v4.44C590.29,550.27,590.26,550.3,590.24,550.3z"/>
<rect x="635.7" y="545.75" class="st0" width="13.2" height="4.55"/>
<path class="st2" d="M409.48,541.79"/>
<polyline class="st2" points="415.52,544.28 294.11,544.28 294.11,175.88 668.74,175.88 668.74,544.28 564.03,544.28 "/>
<g>
	<path class="st3" d="M414.93,386.18c37.23,0,67.52,35.12,67.52,78.29s-30.29,78.29-67.52,78.29c-37.23,0-67.52-35.12-67.52-78.29
		S377.7,386.18,414.93,386.18 M414.93,383.18c-38.95,0-70.52,36.39-70.52,81.29s31.57,81.29,70.52,81.29s70.52-36.39,70.52-81.29
		S453.88,383.18,414.93,383.18L414.93,383.18z"/>
</g>
<path class="st4" d="M586.57,462.34c0-45.27-45.34-81.98-101.27-81.98l95.98,108.19C584.71,480.32,586.57,471.51,586.57,462.34z"/>
<path class="st4" d="M485.3,455.24v89.08c23.89,0,45.84-6.7,63.15-17.9L485.3,455.24z"/>
<path class="st4" d="M631.85,545.02l-50.57-56.47c-6.27,15.06-17.81,28.16-32.83,37.87l16.5,18.6"/>
<text transform="matrix(1 0 0 1 482.8336 578.4016)" class="st1 st5 st6">C</text>
</svg>
